
<svg version="1.0" xmlns="http://www.w3.org/2000/svg"
 width="32.000000pt" height="32.000000pt" viewBox="0 0 32.000000 32.000000"
 preserveAspectRatio="xMidYMid meet">

<g transform="translate(0.000000,32.000000) scale(0.100000,-0.100000)"
fill="#fff" stroke="none">
<path d="M82 298 c-8 -8 -12 -55 -12 -144 0 -111 3 -133 16 -138 28 -11 130
-6 142 6 17 17 17 259 0 276 -16 16 -130 16 -146 0z m128 -123 l0 -95 -60 0
-60 0 0 88 c0 49 3 92 7 95 3 4 30 7 60 7 l53 0 0 -95z m-40 -131 c0 -14 -21
-19 -33 -7 -9 9 13 34 24 27 5 -3 9 -12 9 -20z"/>
</g>
</svg>
